<?xml version="1.0" encoding="UTF-8"?>
<svg version="1.1" xmlns="http://www.w3.org/2000/svg" width="1000" height="1000">
<path d="M0 0 C292.71 0 585.42 0 887 0 C887 292.71 887 585.42 887 887 C594.29 887 301.58 887 0 887 C0 594.29 0 301.58 0 0 Z " fill="#FBFBFB" transform="translate(57,57)"/>
<path d="M0 0 C50.49 0 100.98 0 153 0 C159.88351154 14.914275 159.88351154 14.914275 162.85546875 22.09375 C163.19451233 22.90665497 163.53355591 23.71955994 163.88287354 24.55709839 C164.60872723 26.29795114 165.33352993 28.03924244 166.05734253 29.78094482 C168.03803884 34.5463184 170.02742228 39.30806705 172.015625 44.0703125 C172.42715317 45.05657623 172.83868134 46.04283997 173.26268005 47.05899048 C177.62549012 57.50983233 182.02851421 67.94357289 186.4375 78.375 C187.23129269 80.2537392 188.02507521 82.13248271 188.81884766 84.01123047 C191.21186624 89.67444915 193.60584084 95.33726343 196 101 C199.18839564 108.54128836 202.37620993 116.08282173 205.5625 123.625 C205.95589569 124.55616638 206.34929138 125.48733276 206.75460815 126.44671631 C212.90497309 141.00773566 219.01903205 155.5836848 225.11502075 170.1675415 C230.87987325 183.95783693 236.67955081 197.7330835 242.5 211.5 C248.69574863 226.1545999 254.86395058 240.82030326 261 255.5 C269.48268361 275.79152768 278.03190605 296.05460546 286.59570312 316.31201172 C290.62888001 325.85275217 294.65826924 335.39509251 298.6875 344.9375 C299.27544846 346.32988388 299.27544846 346.32988388 299.87527466 347.75039673 C305.54800342 361.18517361 311.21494095 374.6223804 316.875 388.0625 C317.20438568 388.84446747 317.53377136 389.62643494 317.87313843 390.43209839 C318.80891843 392.65384012 319.74438275 394.87571441 320.6796875 397.09765625 C320.9687648 397.78413742 321.2578421 398.47061859 321.55567932 399.17790222 C323.7120046 404.30319673 325.84426493 409.43822235 327.96142578 414.57983398 C328.89972225 416.76632503 329.91006953 418.88575669 331 421 C331.39832031 419.7934375 331.79664063 418.586875 332.20703125 417.34375 C332.74210565 415.72913954 333.27726652 414.11455773 333.8125 412.5 C334.20405273 411.31277344 334.20405273 411.31277344 334.60351562 410.1015625 C336.04997794 405.744318 337.56243179 401.42596193 339.1940918 397.13476562 C340.84070575 392.77305936 342.41155664 388.38314822 344 384 C346.04745398 378.35025856 348.10386447 372.70541918 350.22265625 367.08203125 C351.84644641 362.73288473 353.41828501 358.36458196 355 354 C355.6870986 352.10402115 356.37459202 350.20818534 357.0625 348.3125 C357.36285156 347.48363281 357.66320312 346.65476562 357.97265625 345.80078125 C358.73696683 343.71709043 359.51290874 341.6376587 360.29492188 339.56054688 C362.39686087 333.96498609 364.43765527 328.34705028 366.48500061 322.7313385 C367.23343366 320.67847443 367.98232308 318.62577734 368.73132324 316.57312012 C370.32127822 312.21555784 371.91068112 307.85779431 373.5 303.5 C375.34364487 298.44486272 377.18752401 293.38981114 379.03199768 288.3349762 C379.76507136 286.32559619 380.4977187 284.3160611 381.23034668 282.30651855 C383.46057794 276.19406981 385.70742964 270.08931585 388 264 C388.64911258 262.23036607 389.29533116 260.4596655 389.9375 258.6875 C390.27523438 257.75679688 390.61296875 256.82609375 390.9609375 255.8671875 C391.30382812 254.92101562 391.64671875 253.97484375 392 253 C392.6870986 251.10402115 393.37459202 249.20818534 394.0625 247.3125 C394.36285156 246.48363281 394.66320312 245.65476562 394.97265625 244.80078125 C395.78723803 242.58003929 396.61266576 240.36437005 397.4453125 238.15039062 C398.92801488 234.2036289 400.3757254 230.24492575 401.8125 226.28125 C402.06749268 225.57907349 402.32248535 224.87689697 402.58520508 224.15344238 C403.3905327 221.93577176 404.1953354 219.71791127 405 217.5 C406.06201787 214.57274137 407.12459441 211.6456864 408.1875 208.71875 C408.42509033 208.063302 408.66268066 207.407854 408.9074707 206.73254395 C410.35049393 202.7590566 411.82219985 198.79726919 413.31030273 194.8404541 C414.20170485 192.46175151 415.07207836 190.07576659 415.9375 187.6875 C416.27523438 186.75679687 416.61296875 185.82609375 416.9609375 184.8671875 C417.30382812 183.92101562 417.64671875 182.97484375 418 182 C420.04745398 176.35025856 422.10386447 170.70541918 424.22265625 165.08203125 C425.84644641 160.73288473 427.41828501 156.36458196 429 152 C431.04745398 146.35025856 433.10386447 140.70541918 435.22265625 135.08203125 C436.84644641 130.73288473 438.41828501 126.36458196 440 122 C440.6870986 120.10402115 441.37459202 118.20818534 442.0625 116.3125 C442.51302734 115.06919922 442.51302734 115.06919922 442.97265625 113.80078125 C443.78723803 111.58003929 444.61266576 109.36437005 445.4453125 107.15039062 C446.92801488 103.2036289 448.3757254 99.24492575 449.8125 95.28125 C450.06749268 94.57907349 450.32248535 93.87689697 450.58520508 93.15344238 C451.3905327 90.93577176 452.1953354 88.71791127 453 86.5 C454.06201787 83.57274137 455.12459441 80.6456864 456.1875 77.71875 C456.42509033 77.063302 456.66268066 76.407854 456.9074707 75.73254395 C458.35049393 71.7590566 459.82219985 67.79726919 461.31030273 63.8404541 C462.20170485 61.46175151 463.07207836 59.07576659 463.9375 56.6875 C464.27523438 55.75679687 464.61296875 54.82609375 464.9609375 53.8671875 C465.47527344 52.44792969 465.47527344 52.44792969 466 51 C466.6870986 49.10402115 467.37459202 47.20818534 468.0625 45.3125 C468.36285156 44.48363281 468.66320312 43.65476563 468.97265625 42.80078125 C474.21732189 28.50258633 479.65609364 14.25041696 485 0 C538.46 0 591.92 0 647 0 C647 49.12472648 647 49.12472648 637.21484375 59.98046875 C625.77654266 70.64560436 612.06733824 71 597 71 C597.33 228.08 597.66 385.16 598 547 C603.94 547.33 609.88 547.66 616 548 C626.89708971 550.72427243 635.13546338 554.06088656 641.1875 563.875 C651.91215498 582.25168153 647 590.5772744 647 618 C574.4 618 501.8 618 427 618 C427 569.12080537 427 569.12080537 437.74609375 558.23046875 C450.2823015 546.62286898 458.62646324 548 477 548 C476.505 392.075 476.505 392.075 476 233 C474.68 236.96 473.36 240.92 472 245 C471.21941381 246.97127139 470.41509884 248.9337888 469.5625 250.875 C467.86050144 254.85632703 466.3078086 258.85067782 464.87890625 262.9375 C462.6543745 269.21346174 460.35517051 275.45842167 458.0234375 281.6953125 C457.65791275 282.67320236 457.292388 283.65109222 456.91578674 284.65861511 C456.1407194 286.73127072 455.36546048 288.80385469 454.59002686 290.87637329 C447.44002326 309.99339326 440.36443935 329.13620707 433.375 348.3125 C426.58869291 366.9309035 419.75463268 385.53078361 412.87524414 404.11499023 C412.19154409 405.9620676 411.50786848 407.80915401 410.82421875 409.65625 C410.49561356 410.54405655 410.16700836 411.4318631 409.82844543 412.34657288 C406.35748386 421.72889237 402.91719659 431.12236831 399.47998047 440.51708984 C396.82970943 447.75536429 394.15154189 454.98174779 391.4140625 462.1875 C390.19090878 465.44709655 389.02783051 468.72685993 387.86328125 472.0078125 C384.54915714 481.31048752 381.11686838 490.56924416 377.68920898 499.83056641 C376.5673183 502.86198067 375.44664899 505.89384426 374.32617188 508.92578125 C370.66490186 518.82827519 366.98993849 528.72518209 363.26782227 538.60498047 C360.35938295 546.39330265 357.56745763 554.21723051 355 562.125 C353.34235792 567.15784101 351.36309617 571.99384457 349.2890625 576.8671875 C346.15574355 584.48210203 343.544596 592.29704604 341 600.125 C338.93785965 606.18253727 336.46112318 612.09330437 334 618 C316.51 618 299.02 618 281 618 C278.08597286 612.17194573 275.32716633 606.6328286 272.86328125 600.66015625 C272.58681259 599.99322754 272.31034393 599.32629883 272.02549744 598.63916016 C271.42992333 597.20134931 270.83597359 595.76286469 270.24353027 594.32376099 C269.28066193 591.98517257 268.31327665 589.6484965 267.34472656 587.31225586 C266.30566197 584.80590075 265.2668231 582.29945527 264.22921753 579.79249573 C260.26090275 570.20547109 256.25732368 560.63327088 252.25 551.0625 C251.87721924 550.17175781 251.50443848 549.28101563 251.12036133 548.36328125 C244.81349729 533.2950045 238.46316168 518.24530388 232.10220337 503.19979858 C226.84858856 490.77143029 221.61978217 478.33328525 216.4375 465.875 C216.13844757 465.15610596 215.83939514 464.43721191 215.53128052 463.6965332 C214.9244625 462.23770623 214.31765612 460.77887442 213.71086121 459.32003784 C213.4079567 458.59180817 213.10505219 457.86357849 212.79296875 457.11328125 C212.48857376 456.38142609 212.18417877 455.64957092 211.87055969 454.89553833 C208.0086273 445.61301731 204.13109443 436.33702307 200.25 427.0625 C199.87495331 426.16625916 199.49990662 425.27001831 199.11349487 424.34661865 C192.87451706 409.44188403 186.59547423 394.5542645 180.30435181 379.67147827 C172.61963482 361.49007452 164.98889195 343.28641249 157.37652588 325.07461548 C154.6853615 318.63687765 151.99004873 312.2008865 149.29296875 305.765625 C142.03138391 288.43715953 134.77647524 271.10643809 127.61376953 253.73681641 C126.95610596 252.14232666 126.95610596 252.14232666 126.28515625 250.515625 C125.91269775 249.61102539 125.54023926 248.70642578 125.15649414 247.77441406 C123.79427724 244.50647384 122.39466727 241.25422363 121 238 C120.67 339.97 120.34 441.94 120 547 C124.95 547 129.9 547 135 547 C146.9963722 549.32939266 156.9850384 553.01315688 164.1875 563.3125 C175.36284218 579.96776203 170 597.08926725 170 618 C113.9 618 57.8 618 0 618 C0 569.1499374 0 569.1499374 11.52734375 557.19921875 C23.75323126 546.32532512 32.57648041 548 50 548 C50 390.59 50 233.18 50 71 C46.7 71 43.4 71 40 71 C30.75307295 70.41826844 22.63712599 69.61698299 15 64 C13.948125 63.278125 12.89625 62.55625 11.8125 61.8125 C4.67047008 54.67047008 2.69853077 47.89461281 0 38 C0 25.46 0 12.92 0 0 Z " fill="#AD00FD" transform="translate(177,191)"/>
<path d="M0 0 C50.49 0 100.98 0 153 0 C159.88351154 14.914275 159.88351154 14.914275 162.85546875 22.09375 C163.19451233 22.90665497 163.53355591 23.71955994 163.88287354 24.55709839 C164.60872723 26.29795114 165.33352993 28.03924244 166.05734253 29.78094482 C168.03803884 34.5463184 170.02742228 39.30806705 172.015625 44.0703125 C172.42715317 45.05657623 172.83868134 46.04283997 173.26268005 47.05899048 C177.62549012 57.50983233 182.02851421 67.94357289 186.4375 78.375 C187.23129269 80.2537392 188.02507521 82.13248271 188.81884766 84.01123047 C191.21186624 89.67444915 193.60584084 95.33726343 196 101 C199.18839564 108.54128836 202.37620993 116.08282173 205.5625 123.625 C205.95589569 124.55616638 206.34929138 125.48733276 206.75460815 126.44671631 C212.90497309 141.00773566 219.01903205 155.5836848 225.11502075 170.1675415 C230.87987325 183.95783693 236.67955081 197.7330835 242.5 211.5 C248.69574863 226.1545999 254.86395058 240.82030326 261 255.5 C269.48268361 275.79152768 278.03190605 296.05460546 286.59570312 316.31201172 C290.62888001 325.85275217 294.65826924 335.39509251 298.6875 344.9375 C299.27544846 346.32988388 299.27544846 346.32988388 299.87527466 347.75039673 C305.54800342 361.18517361 311.21494095 374.6223804 316.875 388.0625 C317.20438568 388.84446747 317.53377136 389.62643494 317.87313843 390.43209839 C318.80891843 392.65384012 319.74438275 394.87571441 320.6796875 397.09765625 C320.9687648 397.78413742 321.2578421 398.47061859 321.55567932 399.17790222 C323.7120046 404.30319673 325.84426493 409.43822235 327.96142578 414.57983398 C328.89972225 416.76632503 329.91006953 418.88575669 331 421 C331.39832031 419.7934375 331.79664063 418.586875 332.20703125 417.34375 C332.74210565 415.72913954 333.27726652 414.11455773 333.8125 412.5 C334.20405273 411.31277344 334.20405273 411.31277344 334.60351562 410.1015625 C336.04997794 405.744318 337.56243179 401.42596193 339.1940918 397.13476562 C340.84070575 392.77305936 342.41155664 388.38314822 344 384 C346.04745398 378.35025856 348.10386447 372.70541918 350.22265625 367.08203125 C351.84644641 362.73288473 353.41828501 358.36458196 355 354 C355.6870986 352.10402115 356.37459202 350.20818534 357.0625 348.3125 C357.36285156 347.48363281 357.66320312 346.65476562 357.97265625 345.80078125 C358.73696683 343.71709043 359.51290874 341.6376587 360.29492188 339.56054688 C362.39686087 333.96498609 364.43765527 328.34705028 366.48500061 322.7313385 C367.23343366 320.67847443 367.98232308 318.62577734 368.73132324 316.57312012 C370.32127822 312.21555784 371.91068112 307.85779431 373.5 303.5 C375.34364487 298.44486272 377.18752401 293.38981114 379.03199768 288.3349762 C379.76507136 286.32559619 380.4977187 284.3160611 381.23034668 282.30651855 C383.46057794 276.19406981 385.70742964 270.08931585 388 264 C388.64911258 262.23036607 389.29533116 260.4596655 389.9375 258.6875 C390.27523438 257.75679688 390.61296875 256.82609375 390.9609375 255.8671875 C391.30382812 254.92101562 391.64671875 253.97484375 392 253 C392.6870986 251.10402115 393.37459202 249.20818534 394.0625 247.3125 C394.36285156 246.48363281 394.66320312 245.65476562 394.97265625 244.80078125 C395.78723803 242.58003929 396.61266576 240.36437005 397.4453125 238.15039062 C398.92801488 234.2036289 400.3757254 230.24492575 401.8125 226.28125 C402.06749268 225.57907349 402.32248535 224.87689697 402.58520508 224.15344238 C403.3905327 221.93577176 404.1953354 219.71791127 405 217.5 C406.06201787 214.57274137 407.12459441 211.6456864 408.1875 208.71875 C408.42509033 208.063302 408.66268066 207.407854 408.9074707 206.73254395 C410.35049393 202.7590566 411.82219985 198.79726919 413.31030273 194.8404541 C414.20170485 192.46175151 415.07207836 190.07576659 415.9375 187.6875 C416.27523438 186.75679687 416.61296875 185.82609375 416.9609375 184.8671875 C417.30382812 183.92101562 417.64671875 182.97484375 418 182 C420.04745398 176.35025856 422.10386447 170.70541918 424.22265625 165.08203125 C425.84644641 160.73288473 427.41828501 156.36458196 429 152 C431.04745398 146.35025856 433.10386447 140.70541918 435.22265625 135.08203125 C436.84644641 130.73288473 438.41828501 126.36458196 440 122 C440.6870986 120.10402115 441.37459202 118.20818534 442.0625 116.3125 C442.51302734 115.06919922 442.51302734 115.06919922 442.97265625 113.80078125 C443.78723803 111.58003929 444.61266576 109.36437005 445.4453125 107.15039062 C446.92801488 103.2036289 448.3757254 99.24492575 449.8125 95.28125 C450.06749268 94.57907349 450.32248535 93.87689697 450.58520508 93.15344238 C451.3905327 90.93577176 452.1953354 88.71791127 453 86.5 C454.06201787 83.57274137 455.12459441 80.6456864 456.1875 77.71875 C456.42509033 77.063302 456.66268066 76.407854 456.9074707 75.73254395 C458.35049393 71.7590566 459.82219985 67.79726919 461.31030273 63.8404541 C462.20170485 61.46175151 463.07207836 59.07576659 463.9375 56.6875 C464.27523438 55.75679687 464.61296875 54.82609375 464.9609375 53.8671875 C465.47527344 52.44792969 465.47527344 52.44792969 466 51 C466.6870986 49.10402115 467.37459202 47.20818534 468.0625 45.3125 C468.36285156 44.48363281 468.66320312 43.65476563 468.97265625 42.80078125 C474.21732189 28.50258633 479.65609364 14.25041696 485 0 C538.46 0 591.92 0 647 0 C647 49.12472648 647 49.12472648 637.21484375 59.98046875 C625.77654266 70.64560436 612.06733824 71 597 71 C597.33 228.08 597.66 385.16 598 547 C603.94 547.33 609.88 547.66 616 548 C626.89708971 550.72427243 635.13546338 554.06088656 641.1875 563.875 C651.91215498 582.25168153 647 590.5772744 647 618 C574.4 618 501.8 618 427 618 C427 569.12080537 427 569.12080537 437.74609375 558.23046875 C450.2823015 546.62286898 458.62646324 548 477 548 C476.505 392.075 476.505 392.075 476 233 C474.68 236.96 473.36 240.92 472 245 C471.21941381 246.97127139 470.41509884 248.9337888 469.5625 250.875 C467.86050144 254.85632703 466.3078086 258.85067782 464.87890625 262.9375 C462.6543745 269.21346174 460.35517051 275.45842167 458.0234375 281.6953125 C457.65791275 282.67320236 457.292388 283.65109222 456.91578674 284.65861511 C456.1407194 286.73127072 455.36546048 288.80385469 454.59002686 290.87637329 C447.44002326 309.99339326 440.36443935 329.13620707 433.375 348.3125 C426.58869291 366.9309035 419.75463268 385.53078361 412.87524414 404.11499023 C412.19154409 405.9620676 411.50786848 407.80915401 410.82421875 409.65625 C410.49561356 410.54405655 410.16700836 411.4318631 409.82844543 412.34657288 C406.35748386 421.72889237 402.91719659 431.12236831 399.47998047 440.51708984 C396.82970943 447.75536429 394.15154189 454.98174779 391.4140625 462.1875 C390.19090878 465.44709655 389.02783051 468.72685993 387.86328125 472.0078125 C384.54915714 481.31048752 381.11686838 490.56924416 377.68920898 499.83056641 C376.5673183 502.86198067 375.44664899 505.89384426 374.32617188 508.92578125 C370.66490186 518.82827519 366.98993849 528.72518209 363.26782227 538.60498047 C360.35938295 546.39330265 357.56745763 554.21723051 355 562.125 C353.34235792 567.15784101 351.36309617 571.99384457 349.2890625 576.8671875 C346.15574355 584.48210203 343.544596 592.29704604 341 600.125 C338.93785965 606.18253727 336.46112318 612.09330437 334 618 C316.51 618 299.02 618 281 618 C278.08597286 612.17194573 275.32716633 606.6328286 272.86328125 600.66015625 C272.58681259 599.99322754 272.31034393 599.32629883 272.02549744 598.63916016 C271.42992333 597.20134931 270.83597359 595.76286469 270.24353027 594.32376099 C269.28066193 591.98517257 268.31327665 589.6484965 267.34472656 587.31225586 C266.30566197 584.80590075 265.2668231 582.29945527 264.22921753 579.79249573 C260.26090275 570.20547109 256.25732368 560.63327088 252.25 551.0625 C251.87721924 550.17175781 251.50443848 549.28101563 251.12036133 548.36328125 C244.81349729 533.2950045 238.46316168 518.24530388 232.10220337 503.19979858 C226.84858856 490.77143029 221.61978217 478.33328525 216.4375 465.875 C216.13844757 465.15610596 215.83939514 464.43721191 215.53128052 463.6965332 C214.9244625 462.23770623 214.31765612 460.77887442 213.71086121 459.32003784 C213.4079567 458.59180817 213.10505219 457.86357849 212.79296875 457.11328125 C212.48857376 456.38142609 212.18417877 455.64957092 211.87055969 454.89553833 C208.0086273 445.61301731 204.13109443 436.33702307 200.25 427.0625 C199.87495331 426.16625916 199.49990662 425.27001831 199.11349487 424.34661865 C192.87451706 409.44188403 186.59547423 394.5542645 180.30435181 379.67147827 C172.61963482 361.49007452 164.98889195 343.28641249 157.37652588 325.07461548 C154.6853615 318.63687765 151.99004873 312.2008865 149.29296875 305.765625 C142.03138391 288.43715953 134.77647524 271.10643809 127.61376953 253.73681641 C126.95610596 252.14232666 126.95610596 252.14232666 126.28515625 250.515625 C125.91269775 249.61102539 125.54023926 248.70642578 125.15649414 247.77441406 C123.79427724 244.50647384 122.39466727 241.25422363 121 238 C120.67 339.97 120.34 441.94 120 547 C124.95 547 129.9 547 135 547 C146.9963722 549.32939266 156.9850384 553.01315688 164.1875 563.3125 C175.36284218 579.96776203 170 597.08926725 170 618 C113.9 618 57.8 618 0 618 C0 569.1499374 0 569.1499374 11.52734375 557.19921875 C23.75323126 546.32532512 32.57648041 548 50 548 C50 390.59 50 233.18 50 71 C46.7 71 43.4 71 40 71 C30.75307295 70.41826844 22.63712599 69.61698299 15 64 C13.948125 63.278125 12.89625 62.55625 11.8125 61.8125 C4.67047008 54.67047008 2.69853077 47.89461281 0 38 C0 25.46 0 12.92 0 0 Z M496 15 C482.74857327 51.04737509 482.74857327 51.04737509 469.55245972 87.11483765 C463.03545933 104.98022849 456.49723305 122.83775755 449.9375 140.6875 C449.38079117 142.20244049 449.38079117 142.20244049 448.81283569 143.74798584 C445.48819513 152.79455196 442.16216096 161.84060538 438.83496094 170.88623047 C436.66016932 176.79891918 434.48599703 182.71183527 432.3125 188.625 C431.949216 189.61333832 431.58593201 190.60167664 431.2116394 191.6199646 C424.36616697 210.24778523 417.55959862 228.8897336 410.75810623 247.53364182 C403.74740633 266.75100205 396.7176055 285.96115687 389.65673828 305.16015625 C383.91760269 320.76608161 378.20256046 336.38067442 372.5 352 C359.09804865 388.70295443 345.64673325 425.38726085 332 462 C329.15268386 459.15268386 328.04098596 455.65033011 326.53515625 451.98046875 C326.19045288 451.15199936 325.84574951 450.32352997 325.49060059 449.46995544 C324.73972289 447.66382538 323.99109259 445.85675976 323.24441528 444.04888916 C321.63297463 440.14762917 320.01062234 436.25093787 318.38890076 432.35394287 C317.53887745 430.31107922 316.68940972 428.26798433 315.84046936 426.22467041 C311.45549091 415.67407639 307.01274748 405.14819051 302.5625 394.625 C301.76897666 392.74717971 300.97551997 390.86933126 300.18212891 388.99145508 C297.78885759 383.32731041 295.39452962 377.66361281 293 372 C289.81160436 364.45871164 286.62379007 356.91717827 283.4375 349.375 C283.04410431 348.44383362 282.65070862 347.51266724 282.24539185 346.55328369 C276.09502691 331.99226434 269.98096795 317.4163152 263.88497925 302.8324585 C258.12012675 289.04216307 252.32044919 275.2669165 246.5 261.5 C240.30425137 246.8454001 234.13604942 232.17969674 228 217.5 C221.88133517 202.86346957 215.73629907 188.23836327 209.5625 173.625 C209.16918488 172.69399475 208.77586975 171.7629895 208.37063599 170.80377197 C205.58138978 164.20210631 202.79084505 157.60098988 200 151 C196.81160436 143.45871164 193.62379007 135.91717827 190.4375 128.375 C190.04410431 127.44383362 189.65070862 126.51266724 189.24539185 125.55328369 C183.10082356 111.00598796 176.99299794 96.44358528 170.90209961 81.87374878 C164.77409687 67.21697156 158.61511186 52.57343566 152.4375 37.9375 C152.01750732 36.94186035 151.59751465 35.9462207 151.16479492 34.92041016 C149.98431911 32.12240059 148.80289317 29.32479448 147.62109375 26.52734375 C147.26784531 25.68997177 146.91459686 24.85259979 146.55064392 23.98985291 C144.85983704 19.95654296 144.85983704 19.95654296 143 16 C101.09 16 59.18 16 16 16 C14.05742828 38.21930925 14.05742828 38.21930925 21 49 C26.90933769 54.06514659 31.31518292 54.97511487 39.03515625 55.46484375 C40.74348633 55.58182617 40.74348633 55.58182617 42.48632812 55.70117188 C44.87407855 55.85896423 47.26210738 56.0125979 49.65039062 56.16210938 C51.35678711 56.28102539 51.35678711 56.28102539 53.09765625 56.40234375 C54.13414307 56.46929443 55.17062988 56.53624512 56.23852539 56.60522461 C58.96875898 56.99553384 60.72461454 57.45475841 63 59 C64.24344286 62.73032859 64.13882526 66.18804334 64.12863445 70.07295132 C64.13038749 70.90927106 64.13214053 71.74559081 64.13394669 72.60725358 C64.13863097 75.43418442 64.13613497 78.26106438 64.13371277 81.08799744 C64.13557952 83.12538764 64.13787967 85.16277749 64.14057809 87.20016676 C64.14671928 92.81804779 64.14655978 98.43591398 64.14538372 104.0537976 C64.14518029 110.105005 64.15069283 116.15620756 64.15544128 122.20741272 C64.16376092 134.06962909 64.16650964 145.93184066 64.16705366 157.79405921 C64.16751277 167.43163653 64.16956885 177.06921223 64.17275429 186.70678902 C64.1736518 189.47848067 64.17454161 192.25017234 64.17542917 195.021864 C64.17565021 195.71086418 64.17587126 196.39986436 64.17609901 197.10974334 C64.1822551 216.49581241 64.18619938 235.88188092 64.18575573 255.26795101 C64.18574015 255.99918506 64.18572457 256.7304191 64.18570852 257.48381176 C64.18562541 261.19022277 64.18552637 264.89663379 64.18542381 268.6030448 C64.18540387 269.33918519 64.18538392 270.07532557 64.18536337 270.83377324 C64.18532294 272.32242872 64.18528114 273.8110842 64.18523798 275.29973967 C64.18462505 298.46765498 64.19213438 321.63555567 64.20581055 344.8034668 C64.22115994 370.81677185 64.22977747 396.8300673 64.22884732 422.84337717 C64.22877269 425.61538319 64.22872399 428.3873892 64.22869301 431.15939522 C64.22868135 431.84196236 64.2286697 432.52452951 64.22865769 433.2277805 C64.22862688 444.2276869 64.23502162 455.22758064 64.24362527 466.22748327 C64.25208828 477.27579663 64.25293024 488.32409512 64.24651595 499.37241095 C64.24323826 505.3616572 64.24323882 511.35085739 64.2518692 517.34009933 C64.25968022 522.81685229 64.25835857 528.29352224 64.24958507 533.77027304 C64.24803809 535.75745575 64.24991076 537.74464449 64.25544515 539.7318201 C64.26244375 542.42171814 64.25726033 545.11132 64.24888897 547.80120754 C64.25385715 548.58238859 64.25882533 549.36356964 64.26394406 550.16842285 C64.21843588 557.03015723 64.21843588 557.03015723 62 560 C55.3531613 562.76289577 48.27788788 562.37748431 41.18164062 562.47851562 C34.28104881 562.67350133 28.41607974 563.32759779 22.79296875 567.7265625 C21.99826172 568.66628906 21.99826172 568.66628906 21.1875 569.625 C20.64480469 570.23601563 20.10210937 570.84703125 19.54296875 571.4765625 C13.09172757 582.02719998 15 590.24164898 15 603 C61.2 603 107.4 603 155 603 C155.78780852 585.37364124 155.78780852 585.37364124 150.3125 570.125 C145.15896397 565.38931825 138.83849486 562.93676671 131.88671875 562.75390625 C130.88576172 562.72103516 129.88480469 562.68816406 128.85351562 562.65429688 C126.75465759 562.59344165 124.65569424 562.53610946 122.55664062 562.48242188 C111.97951404 562.12284028 111.97951404 562.12284028 108 560 C105.92425421 556.0512277 105.75109133 552.66215072 105.75390434 548.24713421 C105.75159665 547.57783413 105.74928897 546.90853405 105.74691135 546.21895215 C105.74160996 543.97217722 105.75059646 541.7256879 105.75949097 539.47892761 C105.75861893 537.85356511 105.75686798 536.22820288 105.75431263 534.60284215 C105.74983478 530.13328448 105.75784882 525.66382242 105.76786876 521.19427693 C105.77649463 516.37564223 105.77358371 511.55701305 105.77206421 506.7383728 C105.77101481 498.38868619 105.77729714 490.0390308 105.78853989 481.68935204 C105.80478449 469.61707792 105.81000183 457.54481892 105.81251587 445.47253505 C105.8168946 425.88671077 105.83020855 406.30090313 105.84912109 386.71508789 C105.86747527 367.68774499 105.88163404 348.66040661 105.89013672 329.63305664 C105.89066217 328.460481 105.89118761 327.28790535 105.89172898 326.07979711 C105.89433903 320.19741031 105.89686645 314.31502347 105.89935279 308.43263662 C105.92009085 259.62174624 105.95532124 210.81087393 106 162 C106.48783494 163.17741068 106.97566988 164.35482136 107.4782877 165.56791115 C109.31136347 169.99188747 111.14484475 174.41569564 112.97844028 178.83945656 C113.76765818 180.74369073 114.55677028 182.64796875 115.34576893 184.55229378 C120.64453738 197.34113446 125.96599145 210.11918362 131.37210083 222.86309814 C133.33255022 227.48526851 135.28714995 232.10991359 137.2421875 236.734375 C137.83674492 238.14047531 137.83674492 238.14047531 138.4433136 239.57498169 C142.67253921 249.58209785 146.87051629 259.60223683 151.0625 269.625 C151.4318869 270.5081488 151.8012738 271.39129761 152.18185425 272.3012085 C154.04369881 276.75303695 155.90502366 281.20508246 157.76611328 285.65722656 C160.00786813 291.0195385 162.25167369 296.38099063 164.49609375 301.7421875 C164.86754517 302.62946533 165.23899658 303.51674316 165.6217041 304.4309082 C166.74776894 307.12061962 167.87387603 309.81031334 169 312.5 C177.25516925 332.21702864 177.25516925 332.21702864 181.34933472 342.01116943 C189.36591647 361.18841732 197.40704842 380.35484179 205.5 399.5 C213.9683162 419.53314265 222.3777749 439.59048336 230.76611328 459.65722656 C233.00786813 465.0195385 235.25167369 470.38099063 237.49609375 475.7421875 C237.86754517 476.62946533 238.23899658 477.51674316 238.6217041 478.4309082 C239.74776894 481.12061962 240.87387603 483.81031334 242 486.5 C250.2539079 506.21401598 250.2539079 506.21401598 254.34910583 516.01062012 C262.6791077 535.93764418 271.03496591 555.85343534 279.4375 575.75 C279.848862 576.72410828 280.260224 577.69821655 280.68405151 578.70184326 C281.85022425 581.46283157 283.0167859 584.22365505 284.18359375 586.984375 C284.69799011 588.20173843 284.69799011 588.20173843 285.22277832 589.44369507 C285.54556763 590.20703156 285.86835693 590.97036804 286.20092773 591.75683594 C286.61579689 592.73810455 286.61579689 592.73810455 287.03904724 593.73919678 C288.35240737 596.8290977 289.67743964 599.91402582 291 603 C301.56 603 312.12 603 323 603 C324.58361328 598.68615234 324.58361328 598.68615234 326.19921875 594.28515625 C337.22063052 564.26696574 348.26820223 534.25846641 359.32666016 504.25390625 C363.28224395 493.52110692 367.23633195 482.78775651 371.19052124 472.05444336 C373.37695179 466.11960593 375.56348092 460.18480482 377.75 454.25 C378.62500047 451.87500017 379.50000047 449.50000017 380.375 447.125 C403.125 385.375 425.875 323.625 448.625 261.875 C449.0580394 260.69960663 449.4910788 259.52421326 449.9372406 258.3132019 C450.81310338 255.93586153 451.68896805 253.55852185 452.56483459 251.18118286 C454.73914948 245.27949628 456.91343259 239.377798 459.08764648 233.47607422 C463.18229853 222.36158485 467.27727793 211.24721636 471.37332153 200.13323975 C473.06888013 195.53259762 474.76428565 190.93189909 476.45965767 186.3311882 C477.61490312 183.19624909 478.77026343 180.06135241 479.92578125 176.92651367 C481.20203584 173.46410838 482.47800017 170.00159624 483.75390625 166.5390625 C484.12588638 165.53013947 484.49786652 164.52121643 484.88111877 163.48171997 C485.23431686 162.52305023 485.58751495 161.56438049 485.95141602 160.57666016 C486.25225601 159.76041168 486.55309601 158.94416321 486.86305237 158.10317993 C487.93683634 155.17239862 489.00463821 152.23951851 490.07105923 149.30605125 C490.43205005 148.3131151 490.79304088 147.32017895 491.16497082 146.29715383 C491.57831026 145.16006268 491.57831026 145.16006268 492 144 C492.04575896 195.8576316 492.08100981 247.71526116 492.10213066 299.57290897 C492.10463213 305.6925676 492.10722077 311.81222619 492.10986328 317.93188477 C492.11065021 319.75938675 492.11065021 319.75938675 492.11145304 321.62380796 C492.12016011 341.36139045 492.13593175 361.09896131 492.15430559 380.83653689 C492.17299624 401.08300215 492.18411496 421.3294613 492.18817699 441.57593483 C492.19092378 454.07314575 492.19960521 466.5703238 492.21583293 479.0675246 C492.2263895 487.63260846 492.22960364 496.19767528 492.22700275 504.76276518 C492.2257194 509.70733054 492.22771276 514.6518384 492.23841095 519.59639359 C492.248132 524.12230812 492.24864233 528.64812638 492.24179779 533.17404532 C492.24095164 534.8121152 492.24349839 536.45019105 492.24976636 538.08824915 C492.25779046 540.3145431 492.25346735 542.54048936 492.24609566 544.76677799 C492.2468551 546.00352711 492.24761454 547.24027622 492.24839699 548.51450258 C491.97918071 552.29213548 491.31225985 555.44771547 490 559 C485.76237689 561.82508207 481.98722908 562.10681905 476.98046875 562.2109375 C476.04009766 562.23929688 475.09972656 562.26765625 474.13085938 562.296875 C472.18052311 562.34864239 470.22997519 562.39300584 468.27929688 562.4296875 C461.34106459 562.65701525 455.29376653 563.25710731 449.7578125 567.8671875 C448.94957031 568.86105469 448.94957031 568.86105469 448.125 569.875 C447.57070313 570.53242187 447.01640625 571.18984375 446.4453125 571.8671875 C439.78057174 581.70218332 443 589.61164518 443 603 C505.37 603 567.74 603 632 603 C632.78780852 585.37364124 632.78780852 585.37364124 627.3125 570.125 C622.15896397 565.38931825 615.83849486 562.93676671 608.88671875 562.75390625 C607.88576172 562.72103516 606.88480469 562.68816406 605.85351562 562.65429688 C603.75465759 562.59344165 601.65569424 562.53610946 599.55664062 562.48242188 C588.60293398 562.11003801 588.60293398 562.11003801 585 560 C583.08448542 554.83186216 582.71519483 550.05420978 582.75111103 544.55535221 C582.74850375 543.72743409 582.74589646 542.89951597 582.74321017 542.04650941 C582.73691366 539.27214449 582.74487124 536.49800623 582.75276184 533.72364807 C582.75117351 531.7145296 582.74870967 529.70541165 582.74544543 527.6962952 C582.73902863 522.17496312 582.7451027 516.6537043 582.75320971 511.13237703 C582.75978449 505.17796047 582.75483869 499.22355212 582.75132751 493.26913452 C582.74686597 482.95074733 582.7497619 472.63238176 582.75797462 462.31399727 C582.76658981 451.48757286 582.77149477 440.66115814 582.77130699 429.83473015 C582.77129552 428.82446709 582.77129552 428.82446709 582.77128382 427.79379467 C582.77124291 425.05980046 582.7711773 422.32580625 582.77107801 419.59181203 C582.77017189 393.94309286 582.78011716 368.29438845 582.79550768 342.6456744 C582.80913002 319.85972805 582.81536902 297.07379219 582.81469727 274.2878418 C582.81465685 272.8249079 582.81461649 271.36197401 582.81457619 269.89904011 C582.81455584 269.17579273 582.81453548 268.45254534 582.81451452 267.70738137 C582.81441372 264.06662472 582.81432314 260.42586807 582.81424427 256.78511143 C582.81422756 256.06684144 582.81421084 255.34857146 582.81419362 254.60853571 C582.81382839 235.5680446 582.81836785 216.5275548 582.82457083 197.48706478 C582.82479111 196.80967743 582.82501138 196.13229007 582.82523832 195.43437583 C582.82612655 192.71046152 582.82701495 189.9865472 582.82792928 187.2626329 C582.83108819 177.78810487 582.83259841 168.31357787 582.83304077 158.83904936 C582.83363806 146.62827248 582.83774886 134.41750365 582.84747223 122.20673031 C582.85209075 116.31823786 582.85513551 110.42975606 582.85387802 104.54126167 C582.85278296 99.15206457 582.85630162 93.76289102 582.86352655 88.37369882 C582.86533963 86.42290463 582.8654704 84.47210802 582.86375926 82.52131373 C582.86169177 79.8710109 582.86576363 77.22078507 582.87136555 74.57048893 C582.86828257 73.43304015 582.86828257 73.43304015 582.86513731 72.2726126 C582.8838257 67.43580459 583.3197855 62.79001475 584 58 C591.33214485 55.84704709 598.26203297 55.63027746 605.8671875 55.52148438 C613.9703252 55.29140914 621.03010055 53.96989945 627 48 C634.21105091 38.01172002 632 27.46378523 632 15 C587.12 15 542.24 15 496 15 Z " fill="#020103" transform="translate(177,191)"/>
</svg>
